<?xml version="1.0" encoding="utf-8"?>
<!-- Generator: Adobe Illustrator 22.0.0, SVG Export Plug-In . SVG Version: 6.00 Build 0)  -->
<svg version="1.1" id="Layer_1" xmlns="http://www.w3.org/2000/svg" xmlns:xlink="http://www.w3.org/1999/xlink" x="0px" y="0px"
	 viewBox="0 0 520 300" style="enable-background:new 0 0 520 300;" xml:space="preserve">
<style type="text/css">
	.st0{opacity:0.9;}
	.st1{fill:#FF0000;}
</style>
<g class="st0">
	<path class="st1" d="M21.2,169.8c-1.9,1.4-3.7,2.9-5.4,4.6c-1.8,1.8-3,2.7-3.4,2.7c-0.2,0-0.3-0.1-0.4-0.2c-0.1-0.3-0.2-0.7-0.2-1
		v-48.5c0-0.4,0.3-0.7,0.6-0.7c0,0,0,0,0,0c0.3,0,0.6,0.2,0.7,0.5c0.4,0.4,0.6,1,0.6,1.5v3.4c0.1,7.4,1.1,14.8,3,22
		c2,8.2,4.6,14.1,7.9,17.6c1.4,1.7,3.4,2.6,5.6,2.6c2.5-0.1,4.9-1.3,6.3-3.4c1.8-2.3,2.7-5.8,2.7-10.4c-0.1-4.8-0.9-9.5-2.5-14.1
		c-2.2-6.6-7-17.2-14.4-31.7c-4.6-9.1-7.6-15.6-8.8-19.7c-1.2-3.8-1.9-7.8-1.9-11.8c0-7.6,1.8-13.5,5.4-17.8S24.7,59,29.2,59
		c3.9,0,7.4,2.1,10.6,6.2c2.7-1.5,5.2-3.2,7.5-5.2c0.8-0.7,1.4-1.1,1.6-1.1c0.1,0,0.2,0.1,0.3,0.2c0.1,0.3,0.2,0.7,0.2,1.1v42
		c0,0.5-0.1,1-0.4,1.4c-0.1,0.2-0.4,0.3-0.6,0.3c-0.3,0-0.6-0.1-0.7-0.4c-0.4-1.8-0.8-3.7-0.9-5.5c-2.1-16-4.9-26.6-8.4-31.8
		c-2.1-3-4.4-4.5-7-4.5c-2,0-3.9,1-5.1,2.6c-1.4,1.7-2.2,4.3-2.2,7.7c0,6.1,3.5,16.2,10.5,30.2l6.8,13.7c4.7,9.4,7.8,16.9,9.4,22.4
		c1.4,4.8,2.2,9.8,2.3,14.9c0,7.6-1.9,13.6-5.6,17.9c-3.8,4.3-8.2,6.5-13.2,6.5C28.7,177.6,24.4,175,21.2,169.8z"/>
	<path class="st1" d="M75.8,61.9h8.5l13.8,112.7h3.5c0.6,0.4,0.8,0.7,0.8,1s-0.3,0.6-0.8,1H78.3c-0.2,0-0.5-0.1-0.6-0.3
		c-0.3-0.4-0.3-1,0-1.4c0.2-0.2,0.4-0.3,0.6-0.3H82l-2-22H65.8L64.2,165c-0.1,0.7-0.1,1.4-0.1,2.1c-0.1,1.8,0.3,3.6,1.3,5.1
		c0.8,1.2,2.1,1.9,3.5,2.1l1.2,0.4c0.2,0.2,0.3,0.5,0.3,0.8c0,0.3-0.1,0.5-0.3,0.7c-0.2,0.2-0.4,0.3-0.7,0.3H56.3
		c-0.2,0-0.5-0.1-0.7-0.3c-0.2-0.2-0.3-0.5-0.3-0.7c0-0.3,0.1-0.6,0.2-0.8l0.9-0.3c1.4-0.2,2.7-0.9,3.5-2c1.2-1.8,2.1-4.8,2.6-9
		L75.8,61.9z M73.8,90.7L66,150.5h13.6L73.8,90.7z"/>
	<path class="st1" d="M104.2,62.2h-3.9c-0.2,0-0.5-0.1-0.7-0.3c-0.2-0.2-0.3-0.4-0.3-0.7c0-0.3,0.1-0.5,0.3-0.7
		c0.2-0.2,0.4-0.3,0.7-0.3H125c0.2,0,0.5,0.1,0.7,0.3c0.2,0.2,0.3,0.4,0.3,0.7c0,0.3-0.1,0.5-0.2,0.7c-0.2,0.2-0.4,0.3-0.7,0.3h-4.7
		l6.7,85.6l9.2-77.7c0.1-0.7,0.2-1.4,0.2-2.2c0.1-1.3-0.2-2.6-0.7-3.9c-0.4-0.8-1.1-1.4-2-1.6l-2.5-0.2c-0.3-0.2-0.5-0.5-0.5-0.9
		c0-0.3,0.3-0.7,0.9-1h11.7c0.2,0,0.4,0.1,0.6,0.2c0.2,0.2,0.2,0.4,0.2,0.6c0,0.2-0.1,0.4-0.2,0.6c-0.2,0.2-0.4,0.3-0.6,0.3
		c-1.1,0.1-2.2,0.7-2.9,1.6c-1.1,1.6-1.8,4.3-2.2,8l-11.8,97.7c-0.2,2.2-0.5,4.4-1,6.6c-0.3,0.4-0.7,0.6-1.2,0.5h-7.4
		c-0.4,0-0.8-0.2-0.9-0.6c-0.6-2.9-0.9-5.9-1.2-8.9L104.2,62.2z"/>
	<path class="st1" d="M151.3,62.2h-4.8c-0.6-0.4-0.9-0.7-0.9-0.9s0.3-0.7,0.9-1h42.6v43c0,0.2-0.1,0.4-0.2,0.6
		c-0.2,0.2-0.4,0.2-0.6,0.2c-0.3,0-0.5-0.1-0.7-0.3c-0.2-0.8-0.3-1.6-0.3-2.4c-0.3-6.9-1.4-13.8-3.2-20.5
		c-1.9-7.3-3.7-12.3-5.4-14.9c-0.8-1.2-1.9-2.2-3.2-2.9c-1.8-0.7-3.8-1-5.7-0.9h-2.6v54.3c2.4-0.2,4.5-1.7,6.2-4.4
		c2.6-4.2,3.9-10.6,3.9-19.4v-4.2c0-0.3,0.1-0.5,0.2-0.7c0.2-0.2,0.4-0.2,0.6-0.2c0.2,0,0.5,0.1,0.6,0.3c0.2,0.2,0.3,0.4,0.2,0.7v58
		c0,0.3-0.1,0.5-0.2,0.7c-0.2,0.2-0.4,0.3-0.6,0.2l-0.6-0.2c-0.2-0.2-0.3-0.4-0.3-0.7v-6.9c0-7.5-1.3-13.2-3.8-17.1
		c-1.7-2.5-3.8-3.8-6.3-3.9v55.9h4.9c0.2,0,0.5,0.1,0.6,0.3c0.3,0.4,0.3,1,0,1.4c-0.2,0.2-0.4,0.3-0.6,0.3h-25.6
		c-0.3,0-0.6-0.1-0.9-0.3c-0.2-0.2-0.3-0.4-0.3-0.7c0-0.3,0.1-0.5,0.3-0.7c0.2-0.2,0.5-0.3,0.9-0.3h4.8L151.3,62.2z"/>
	<path class="st1" d="M199.7,62.2H195c-0.3,0-0.5-0.1-0.7-0.3c-0.2-0.2-0.3-0.4-0.3-0.7c0-0.3,0.1-0.5,0.3-0.7
		c0.2-0.2,0.5-0.3,0.7-0.3h25.4c0.5,0.3,0.8,0.7,0.8,1s-0.3,0.6-0.8,1h-4.9v56.4l17.7-43c1-2.2,1.6-4.6,1.6-7c0.1-1.5-0.3-2.9-1-4.2
		c-0.7-1-1.7-1.8-2.8-2.1l-3-0.2c-0.3-0.2-0.6-0.5-0.5-0.9c0-0.3,0.1-0.5,0.3-0.7c0.2-0.2,0.4-0.3,0.7-0.3h19c0.2,0,0.5,0.1,0.7,0.3
		c0.2,0.2,0.3,0.5,0.3,0.7c0,0.4-0.1,0.7-0.5,0.8l-3.7,0.4c-1.9,0.7-3.6,2-4.7,3.8c-1.3,2-3.2,5.9-5.6,11.9L226,97.4l20.3,77.2h3.5
		c0.6,0,1,0.5,0.9,1.1c0,0.2-0.1,0.4-0.3,0.6c-0.2,0.2-0.4,0.3-0.7,0.3h-24.7c-0.5-0.3-0.7-0.7-0.7-1s0.2-0.7,0.7-1h5.1l-14.7-53.9
		v53.9h4.8c0.3,0,0.5,0.1,0.7,0.3c0.4,0.4,0.4,1,0,1.4c-0.2,0.2-0.5,0.3-0.7,0.3H195l-0.3-0.1c-0.2-0.2-0.2-0.5-0.2-0.8
		c0-0.4,0.2-0.8,0.5-1h4.6L199.7,62.2z"/>
	<path class="st1" d="M281.4,62.2h-4.5c-0.5,0-0.9-0.4-0.9-0.9c0,0,0,0,0,0c0-0.3,0.1-0.5,0.3-0.7c0.2-0.2,0.4-0.3,0.7-0.3h21
		l7.4,70.9l9.5-70.9h21c0.3,0,0.6,0.1,0.8,0.3c0.2,0.2,0.3,0.4,0.3,0.7c0,0.3-0.1,0.5-0.3,0.7c-0.2,0.2-0.5,0.3-0.8,0.3h-5v112.4h5
		c0.1,0,0.2,0,0.3,0.1c0.2,0.3,0.2,0.6,0.2,0.9c0,0.2,0,0.5-0.2,0.7c-0.1,0.1-0.2,0.2-0.4,0.2h-25.4c-0.2,0-0.4-0.1-0.6-0.3
		c-0.4-0.4-0.4-1,0-1.4c0.2-0.2,0.4-0.3,0.6-0.3h5.3V67.2l-13.6,106.6c-0.1,0.8-0.2,1.6-0.5,2.4c-0.2,0.2-0.4,0.3-0.7,0.3h-5
		c-0.3,0-0.5-0.1-0.7-0.3c-0.3-0.8-0.4-1.6-0.5-2.4L283.5,68.3v98c-0.1,1.9,0.2,3.8,0.8,5.6c0.6,1.1,1.6,2,2.8,2.3l3.5,0.3
		c0.3,0.2,0.4,0.6,0.4,0.9c0,0.3,0,0.6-0.2,0.8c-0.3,0.2-0.7,0.2-1,0.2h-13.6c-0.2,0-0.4-0.1-0.5-0.2c-0.1-0.2-0.2-0.4-0.2-0.6
		c0-0.2,0.1-0.4,0.2-0.6c0.4-0.3,0.9-0.5,1.4-0.6c1.3-0.4,2.5-1.3,3.2-2.4c0.9-1.8,1.3-3.7,1.1-5.7V62.2z"/>
	<path class="st1" d="M346.8,62.2h-4.6c-0.6-0.4-0.9-0.7-0.9-1s0.3-0.6,0.9-1H367c0.2,0,0.5,0.1,0.6,0.3c0.2,0.2,0.2,0.4,0.2,0.6
		c0,0.3-0.1,0.6-0.2,0.8c-0.2,0.2-0.4,0.3-0.6,0.3h-4.3v106.5c-0.1,1.8,0.5,3.6,1.8,5c1.3,1.2,3,1.9,4.8,1.8c3.6,0.1,7-1.6,9.1-4.4
		c2.4-2.9,3.6-7.5,3.6-13.8V72.2c0-3.9-0.3-6.3-1-7.4c-0.9-1.2-2.2-2-3.7-2.2c-0.7-0.1-1.3-0.3-1.8-0.7c-0.3-0.2-0.4-0.5-0.4-0.9
		l0.1-0.5l0.6-0.2h12.1c0.3,0,0.7,0.3,1.1,0.8c0,0.3-0.1,0.5-0.4,0.7c-0.4,0.2-0.8,0.4-1.2,0.4c-1,0.2-1.9,0.8-2.4,1.8
		c-1,1.7-1.5,4.4-1.5,8.1v87.3c0,6-1.5,10.5-4.6,13.6s-7.5,4.6-13.2,4.6c-7.3,0-12.5-1.9-15.8-5.6c-2.3-2.6-3.4-7.6-3.4-14.8
		L346.8,62.2z"/>
	<path class="st1" d="M404.1,169.8c-1.9,1.4-3.7,2.9-5.4,4.6c-1.8,1.8-2.9,2.7-3.4,2.7c-0.2,0-0.3-0.1-0.4-0.2
		c-0.1-0.3-0.2-0.7-0.2-1v-48.5c0-0.4,0.3-0.7,0.6-0.7c0,0,0,0,0,0c0.3,0,0.6,0.2,0.7,0.5c0.4,0.4,0.6,1,0.6,1.5v3.4
		c0.1,7.4,1.1,14.8,3,22c2,8.2,4.6,14.1,7.9,17.6c1.4,1.7,3.4,2.6,5.5,2.6c2.5-0.1,4.9-1.3,6.3-3.4c1.8-2.3,2.7-5.8,2.7-10.4
		c-0.1-4.8-0.9-9.5-2.5-14.1c-2.2-6.6-7-17.2-14.4-31.7c-4.6-9.1-7.6-15.6-8.8-19.7c-1.2-3.8-1.9-7.8-1.9-11.8
		c0-7.6,1.8-13.5,5.4-17.8c3.6-4.3,7.6-6.4,12.2-6.4c3.9,0,7.4,2.1,10.6,6.2c2.7-1.5,5.2-3.2,7.5-5.2c0.8-0.7,1.4-1.1,1.6-1.1
		c0.1,0,0.2,0.1,0.3,0.2c0.1,0.3,0.2,0.7,0.1,1.1v42c0,0.5-0.1,1-0.4,1.4c-0.1,0.2-0.4,0.3-0.6,0.3c-0.3,0-0.6-0.1-0.7-0.4
		c-0.4-1.8-0.8-3.7-0.9-5.6c-2.1-16-4.9-26.6-8.4-31.8c-2.1-3-4.4-4.5-7-4.5c-2,0-3.9,1-5.1,2.6c-1.4,1.7-2.2,4.3-2.2,7.7
		c0,6.1,3.5,16.2,10.5,30.2l6.8,13.7c4.7,9.4,7.8,16.9,9.4,22.4c1.5,4.8,2.2,9.8,2.4,14.9c0,7.6-1.9,13.6-5.6,17.9
		c-3.8,4.3-8.2,6.5-13.2,6.5C411.7,177.6,407.3,175,404.1,169.8z"/>
	<path class="st1" d="M444.4,62.2h-4.6c-0.2,0-0.5-0.1-0.6-0.3c-0.2-0.2-0.2-0.4-0.2-0.7c0-0.3,0.1-0.5,0.2-0.7
		c0.2-0.2,0.4-0.3,0.6-0.3h25.1c0.5,0,0.9,0.4,0.9,0.9c0,0,0,0,0,0c0,0.3-0.1,0.5-0.3,0.7c-0.2,0.2-0.4,0.3-0.7,0.3h-4.6v112.4h4.6
		c0.5,0.4,0.8,0.7,0.8,1s-0.3,0.7-0.8,1h-25.7c-0.6-0.3-0.9-0.7-0.9-1s0.3-0.6,0.9-1h5.3L444.4,62.2z"/>
	<path class="st1" d="M510,59.4v45.8c0,0.3-0.1,0.6-0.3,0.9c-0.2,0.2-0.5,0.4-0.8,0.3c-0.3,0-0.6-0.1-0.8-0.3
		c-0.2-0.3-0.3-0.6-0.3-0.9v-4.1c0-6.6-0.8-13.1-2.2-19.6c-1.9-8.6-4.5-14.6-7.9-18.2c-1.3-1.4-3.1-2.1-5-2.1
		c-1.3,0-2.5,0.6-3.3,1.6c-1.1,1.3-1.6,3.4-1.6,6.2v99.1c0,2.5,0.5,4.3,1.4,5.4c1,1.1,2.4,1.7,3.8,1.7c2.4-0.1,4.6-1.1,6.3-2.7
		c2.3-2,4-4.5,4.9-7.4c2.5-6.7,3.7-13.9,3.6-21.1v-12.7c0-0.4,0.1-0.8,0.3-1.2c0.2-0.2,0.5-0.4,0.8-0.4c0.2,0,0.5,0.1,0.6,0.3
		c0.3,0.3,0.5,0.8,0.5,1.2v12.8c0,12-2.2,21-6.6,27c-3.1,4.3-7.1,6.5-11.9,6.5c-3.4,0.1-6.7-1.1-9.3-3.4c-2.6-2.2-4.8-6.1-6.4-11.5
		c-3-10.1-4.6-22.4-4.6-36.7v-13.2c0-9.8,0.8-19.7,2.7-29.3c1.8-9.2,4.7-16,8.7-20.2c2.3-2.7,5.7-4.2,9.2-4.3
		c4.1,0,7.8,2.8,11.2,8.5l6.2-8.1L510,59.4z"/>
	<path class="st1" d="M23.1,201.1v15.5c0,0.1,0,0.2-0.1,0.3c-0.1,0.1-0.2,0.1-0.3,0.1c-0.1,0-0.2,0-0.3-0.1
		c-0.1-0.1-0.1-0.2-0.1-0.3v-1.4c0-2.2-0.3-4.4-0.8-6.6c-0.6-2.9-1.5-4.9-2.7-6.2c-0.4-0.5-1.1-0.7-1.7-0.7c-0.4,0-0.9,0.2-1.1,0.6
		c-0.4,0.6-0.6,1.3-0.6,2.1v33.5c-0.1,0.6,0.1,1.3,0.5,1.8c0.3,0.4,0.8,0.6,1.3,0.6c0.8,0,1.6-0.4,2.1-0.9c0.8-0.7,1.3-1.5,1.7-2.5
		c0.8-2.3,1.2-4.7,1.2-7.1v-4.3c0-0.1,0-0.3,0.1-0.4c0.1-0.1,0.2-0.1,0.3-0.1c0.1,0,0.2,0,0.2,0.1c0.1,0.1,0.2,0.3,0.2,0.4v4.3
		c0,4.1-0.8,7.1-2.2,9.1c-0.9,1.4-2.4,2.2-4,2.2c-1.1,0-2.3-0.4-3.1-1.1c-1.1-1.1-1.8-2.4-2.2-3.9c-1.1-4-1.6-8.2-1.5-12.4v-4.5
		c0-3.3,0.3-6.6,0.9-9.9c0.6-3.1,1.6-5.4,2.9-6.8c0.8-0.9,1.9-1.4,3.2-1.4c1.4,0,2.6,1,3.8,2.9l2.1-2.7L23.1,201.1z"/>
	<path class="st1" d="M39.7,216.5v9.6c0,5.6-0.9,9.6-2.6,12.2c-0.9,1.6-2.7,2.6-4.6,2.7c-1.3,0-2.5-0.5-3.4-1.3
		c-1.2-1.1-2-2.4-2.5-3.9c-1-3-1.5-6.1-1.4-9.2v-11.3c0-5.2,0.9-9.1,2.6-11.7c0.9-1.6,2.6-2.6,4.5-2.6c0.8,0,1.7,0.2,2.4,0.6
		c0.8,0.4,1.5,1,2,1.7c0.7,0.9,1.2,1.9,1.5,3c0.5,1.3,0.8,2.6,1,3.9C39.6,212.2,39.7,214.4,39.7,216.5z M30.7,236.7
		c-0.1,1,0.1,2,0.6,2.9c0.2,0.4,0.7,0.7,1.1,0.7c0.5,0,0.9-0.2,1.2-0.6c0.4-0.5,0.5-1.1,0.5-1.7v-33.5c0-0.8-0.2-1.6-0.7-2.2
		c-0.2-0.4-0.7-0.6-1.1-0.6c-0.4,0-0.8,0.2-1,0.6c-0.4,0.7-0.7,1.5-0.6,2.3L30.7,236.7z"/>
	<path class="st1" d="M43.1,202h-1.7c-0.2,0-0.3-0.1-0.3-0.3c0-0.1,0-0.2,0.1-0.2c0.1-0.1,0.1-0.1,0.2-0.1h7.7
		c1.2,0,2.4,0.3,3.5,0.9c0.9,0.5,1.6,1.2,2.2,2c0.7,0.8,1.2,1.8,1.6,2.8c0.5,1.4,0.7,2.8,0.7,4.3v2.7c0,1.7-0.3,3.4-1.1,5
		c-0.7,1.4-1.6,2.5-2.9,3.4c-1.1,0.8-2.5,1.2-3.8,1.2h-0.9v16.2H50c0.1,0,0.2,0,0.2,0.1c0.1,0.1,0.1,0.3,0,0.5
		c-0.1,0.1-0.1,0.1-0.2,0.1h-8.6c-0.1,0-0.2,0-0.2-0.1c-0.1-0.1-0.1-0.3,0-0.5c0.1-0.1,0.1-0.1,0.2-0.1h1.7V202z M48.5,202v21h1
		c0.6,0,1.2-0.2,1.6-0.6c0.4-0.5,0.7-1.1,0.6-1.8v-16c0-0.7-0.2-1.5-0.6-2.1c-0.3-0.4-0.8-0.6-1.3-0.6L48.5,202z"/>
	<path class="st1" d="M63.8,221.1L59.6,202h-1c-0.1,0-0.2,0-0.2-0.1c-0.1-0.1-0.1-0.2-0.1-0.2c0-0.1,0-0.2,0.1-0.2
		c0.1-0.1,0.1-0.1,0.2-0.1H67c0.2,0.1,0.3,0.2,0.3,0.3s-0.1,0.2-0.3,0.4h-2.1l4,17.8L72,206c0.1-0.5,0.2-1,0.2-1.4
		c0-0.5-0.1-1.1-0.3-1.6c-0.2-0.4-0.5-0.7-0.9-0.8l-0.9-0.1c-0.1-0.1-0.2-0.2-0.2-0.3c0-0.1,0.1-0.2,0.3-0.4h4.2
		c0.1,0,0.3,0,0.4,0.1l0.1,0.1c0,0.1-0.1,0.3-0.3,0.4c-1,0.7-1.7,1.8-1.8,3l-3.7,16.2V240h2.1c0.1,0,0.2,0,0.2,0.1
		c0.1,0.1,0.1,0.3,0,0.5c-0.1,0.1-0.1,0.1-0.2,0.1h-9.6c-0.1,0-0.2,0-0.2-0.1c-0.1-0.1-0.1-0.3,0-0.5c0.1-0.1,0.1-0.1,0.2-0.1h2.2
		V221.1z"/>
	<path class="st1" d="M77.5,202H76c-0.2-0.1-0.3-0.2-0.3-0.3s0.1-0.2,0.3-0.3h8.2c2.1,0,4,1,5.3,2.6c1.6,2,2.3,4.5,2.2,7.1
		c0,1.6-0.3,3.1-0.9,4.6c-0.5,1.3-1.4,2.5-2.6,3.4c-1,0.7-2,1.2-3.1,1.5c1.2,0.3,2.3,0.7,3.3,1.4c1,0.7,1.8,1.6,2.3,2.6
		c0.6,1.3,0.8,2.6,0.8,4v9.5c0,0.3,0,0.6,0.2,0.9c0.1,0.2,0.3,0.3,0.6,0.3c0.4,0,0.8-0.3,0.9-0.6c0.6-1.2,0.9-2.5,0.9-3.8
		c0-0.2,0-0.4,0.1-0.6c0.1-0.1,0.1-0.1,0.2-0.1c0.1,0,0.2,0.1,0.3,0.2c0.1,0.2,0.2,0.5,0.1,0.8c0.1,1.6-0.4,3.2-1.4,4.5
		c-0.9,1-2.2,1.6-3.5,1.6c-1,0.1-2.1-0.3-2.8-1c-0.7-0.7-1.1-1.7-1-2.7v-13.8c0.1-0.9-0.2-1.8-0.9-2.4c-0.8-0.3-1.6-0.4-2.4-0.3
		v19.2h1.3c0.1,0,0.2,0,0.3,0.1c0.1,0.1,0.1,0.1,0.1,0.2c0,0.1,0,0.2-0.1,0.2c-0.1,0.1-0.2,0.1-0.3,0.1H76c-0.1,0-0.2,0-0.3-0.1
		c-0.1-0.1-0.1-0.3,0-0.5c0,0,0,0,0,0c0.1-0.1,0.2-0.1,0.3-0.1h1.5V202z M82.9,202v18.1h1.3c0.6,0,1.1-0.2,1.5-0.6
		c0.4-0.5,0.6-1.2,0.6-1.8v-13.5c0.1-0.6-0.1-1.1-0.4-1.6c-0.5-0.4-1.1-0.5-1.6-0.4L82.9,202z"/>
	<path class="st1" d="M97.6,202H96c-0.1,0-0.2,0-0.2-0.1c0-0.1-0.1-0.1-0.1-0.2c0-0.1,0-0.2,0.1-0.2c0.1-0.1,0.1-0.1,0.2-0.1h8.5
		c0.1,0,0.2,0,0.2,0.1c0.1,0.1,0.1,0.1,0.1,0.2c0,0.1,0,0.2-0.1,0.2c-0.1,0.1-0.1,0.1-0.2,0.1h-1.6v37.9h1.6
		c0.2,0.1,0.3,0.2,0.3,0.3s-0.1,0.2-0.3,0.3h-8.7c-0.2-0.1-0.3-0.2-0.3-0.3s0.1-0.2,0.3-0.3h1.8V202z"/>
	<path class="st1" d="M117.4,203.9l1.7-2.4c0.1-0.2,0.3-0.3,0.4-0.3c0,0,0.1,0,0.1,0c0,0,0.1,0.1,0.1,0.2v15.6c0,0.1,0,0.2-0.1,0.2
		c-0.1,0-0.1,0.1-0.2,0.1c-0.1,0-0.2,0-0.2-0.1c-0.1-0.5-0.1-0.9-0.2-1.4c-0.6-6.3-1.5-10.5-2.7-12.4c-0.4-0.9-1.4-1.6-2.4-1.6
		c-0.5,0-1,0.3-1.3,0.7c-0.4,0.7-0.6,1.6-0.5,2.4v33.7c0,0.5,0.1,1,0.5,1.3c0.3,0.3,0.7,0.5,1.2,0.5c0.5,0,0.9-0.2,1.2-0.6
		c0.4-0.6,0.6-1.4,0.6-2.1v-14.5h-1.3c-0.1,0-0.2,0-0.2-0.1c-0.1-0.1-0.1-0.1-0.1-0.2c0-0.1,0-0.2,0.1-0.3c0.1-0.1,0.1-0.1,0.2-0.1
		h7.6c0.1,0,0.2,0,0.2,0.1c0.1,0.1,0.1,0.2,0.1,0.2c0,0.1,0,0.2-0.1,0.2c-0.1,0.1-0.1,0.1-0.2,0.1h-1.2v17.5c0,0.1,0,0.2-0.1,0.3
		c0,0-0.1,0.1-0.2,0.1c-0.1,0-0.1,0-0.2-0.1c-0.1-0.1-0.2-0.2-0.2-0.3l-1.5-3.7c-0.6,1.2-1.5,2.4-2.5,3.3c-0.6,0.5-1.4,0.8-2.3,0.7
		c-2.4,0-4.2-1.3-5.4-4s-1.8-6.3-1.8-10.8v-9.7c-0.1-3.8,0.6-7.7,2-11.2c1.3-2.9,3-4.3,5.1-4.3C115.1,200.9,116.4,201.9,117.4,203.9
		z"/>
	<path class="st1" d="M125,239.9V202h-1.7c-0.2-0.1-0.3-0.2-0.3-0.3s0.1-0.2,0.3-0.3h7.9c0.2,0.1,0.3,0.2,0.3,0.3s-0.1,0.2-0.3,0.3
		h-0.8v17.9h3.3V202h-1.1c-0.2-0.1-0.3-0.2-0.3-0.3s0.1-0.2,0.3-0.3h8.1c0.2,0.1,0.3,0.2,0.3,0.3s-0.1,0.2-0.3,0.3h-1.5v37.9h1.6
		c0.1,0,0.2,0,0.2,0.1c0.1,0.1,0.1,0.3,0,0.5c-0.1,0.1-0.2,0.1-0.2,0.1h-7.8c-0.1,0-0.2,0-0.2-0.1c-0.1-0.1-0.1-0.2-0.1-0.2
		c0-0.2,0.1-0.3,0.3-0.3c0,0,0,0,0,0h0.9v-19.5h-3.3v19.5h1c0.1,0,0.2,0,0.2,0.1c0.1,0.1,0.1,0.3,0,0.5c-0.1,0.1-0.1,0.1-0.2,0.1
		h-8.1c-0.2-0.1-0.3-0.2-0.3-0.3s0.1-0.2,0.3-0.3L125,239.9z"/>
	<path class="st1" d="M148.1,202h-0.6c-0.4,0-0.7,0.1-1,0.4c-0.6,0.7-1,1.5-1.2,2.4c-0.7,2.3-1.3,4.7-1.6,7.2
		c-0.3,1.8-0.6,3.5-0.7,5.3v0.6c0,0.1,0,0.2-0.1,0.3c-0.1,0.1-0.1,0.1-0.2,0.1c-0.1,0-0.2,0-0.2-0.1c-0.1-0.1-0.1-0.2-0.1-0.3v-16.5
		h16.9v16.5c0,0.1,0,0.2-0.1,0.3c-0.1,0.1-0.2,0.1-0.3,0.1c-0.1,0-0.2,0-0.2-0.1c-0.1-0.1-0.1-0.2-0.1-0.3v-1
		c-0.1-1.9-0.4-3.7-0.8-5.5c-0.4-2.3-1-4.6-1.7-6.8c-0.2-0.8-0.5-1.5-1-2.1c-0.2-0.2-0.5-0.3-0.8-0.4h-0.8V240h2
		c0.2,0.1,0.3,0.2,0.3,0.3s-0.1,0.2-0.3,0.3h-9.6c-0.1,0-0.2,0-0.2-0.1c-0.1-0.1-0.1-0.3,0-0.5c0.1-0.1,0.1-0.1,0.2-0.1h2.3
		L148.1,202z"/>
	<path class="st1" d="M174.5,201.9h2.9l4.6,38h1.2c0.2,0.1,0.3,0.2,0.3,0.3s-0.1,0.2-0.3,0.3h-7.9c-0.1,0-0.2,0-0.2-0.1
		c-0.1-0.1-0.1-0.3,0-0.5c0.1-0.1,0.1-0.1,0.2-0.1h1.2l-0.7-7.4h-4.8l-0.5,4.2c0,0.2,0,0.5,0,0.7c0,0.6,0.1,1.2,0.4,1.7
		c0.3,0.4,0.7,0.7,1.2,0.7l0.4,0.1c0.1,0.1,0.1,0.2,0.1,0.3c0,0.1,0,0.2-0.1,0.2c-0.1,0.1-0.1,0.1-0.2,0.1H168c-0.1,0-0.2,0-0.2-0.1
		c-0.1-0.1-0.1-0.2-0.1-0.2c0-0.1,0-0.2,0.1-0.3l0.3-0.1c0.5,0,0.9-0.3,1.2-0.7c0.5-0.9,0.8-1.9,0.9-3L174.5,201.9z M173.8,211.6
		l-2.6,20.2h4.6L173.8,211.6z"/>
	<path class="st1" d="M197.1,204.6c0-0.6-0.1-1.2-0.3-1.7c-0.2-0.4-0.6-0.6-1-0.7l-1.1-0.1c-0.1,0-0.1-0.1-0.1-0.3
		c0-0.1,0-0.2,0.1-0.3c0.1-0.1,0.2-0.1,0.3-0.1h4.6c0.1,0,0.1,0,0.2,0.1c0,0.1,0.1,0.1,0.1,0.2c0,0.1,0,0.1-0.1,0.2
		c-0.1,0.1-0.3,0.2-0.5,0.2c-0.5,0.1-0.8,0.4-1.1,0.8c-0.3,0.6-0.4,1.2-0.4,1.9v35.8h-4l-6.5-35.7v32.4c0,0.6,0,1.3,0.3,1.9
		c0.2,0.4,0.5,0.6,0.9,0.8l1.2,0.1c0.1,0.1,0.1,0.2,0.1,0.3c0,0.1,0,0.2-0.1,0.3c-0.1,0.1-0.2,0.1-0.3,0.1h-4.6
		c-0.1,0-0.1,0-0.2-0.1c0-0.1-0.1-0.1-0.1-0.2c0-0.1,0-0.1,0.1-0.2c0.1-0.1,0.3-0.2,0.5-0.2c0.4-0.1,0.8-0.4,1.1-0.8
		c0.3-0.6,0.4-1.3,0.4-1.9V202h-1.5c-0.1,0-0.2,0-0.2-0.1c-0.1-0.1-0.1-0.2-0.1-0.2c0-0.1,0-0.2,0.1-0.2c0.1-0.1,0.1-0.1,0.2-0.1
		h6.8l5.3,28.7L197.1,204.6z"/>
	<path class="st1" d="M202.5,239.9V202h-1.6c-0.1,0-0.2,0-0.3-0.1c-0.1-0.1-0.1-0.2-0.1-0.2c0-0.1,0-0.2,0.1-0.2
		c0.1-0.1,0.2-0.1,0.3-0.1h6.8c1.8-0.1,3.6,0.4,5.1,1.4c1.4,1.1,2.4,2.7,2.9,4.5c0.8,2.9,1.2,5.9,1.2,8.9v9.7c0,3-0.4,6-1.2,8.8
		c-0.3,1.3-0.9,2.4-1.7,3.5c-0.7,0.8-1.6,1.5-2.5,1.9c-1.2,0.5-2.4,0.7-3.7,0.6h-6.8c-0.1,0-0.2,0-0.3-0.1c-0.1-0.1-0.1-0.2-0.1-0.2
		c0-0.1,0-0.2,0.1-0.3c0.1-0.1,0.2-0.1,0.3-0.1L202.5,239.9z M207.9,239.9h0.6c0.7,0.1,1.5-0.1,2.1-0.6c0.3-0.4,0.5-1.3,0.5-2.9
		v-31.5c0.1-0.8-0.1-1.6-0.5-2.3c-0.4-0.4-0.9-0.6-1.5-0.6h-1.2V239.9z"/>
	<path class="st1" d="M227.5,202H226c-0.2-0.1-0.3-0.2-0.3-0.3s0.1-0.2,0.3-0.3h8.2c2.1,0,4,1,5.3,2.6c1.6,2,2.4,4.5,2.2,7.1
		c0,1.6-0.3,3.1-0.9,4.6c-0.5,1.3-1.4,2.5-2.6,3.3c-1,0.7-2,1.2-3.1,1.5c1.2,0.3,2.3,0.7,3.3,1.4c1,0.7,1.8,1.6,2.3,2.6
		c0.6,1.3,0.8,2.6,0.8,4v9.6c0,0.3,0,0.6,0.2,0.9c0.1,0.2,0.3,0.3,0.6,0.3c0.4,0,0.8-0.3,0.9-0.6c0.6-1.2,0.9-2.5,0.9-3.8
		c0-0.2,0-0.4,0.1-0.6c0.1-0.1,0.1-0.1,0.2-0.1c0.1,0,0.2,0.1,0.3,0.2c0.1,0.2,0.2,0.5,0.1,0.8c0.1,1.6-0.4,3.2-1.4,4.5
		c-0.9,1-2.2,1.6-3.6,1.6c-1,0.1-2.1-0.3-2.8-1c-0.7-0.7-1.1-1.7-1-2.7v-13.8c0.1-0.9-0.2-1.8-0.9-2.4c-0.8-0.3-1.6-0.4-2.4-0.3
		v19.2h1.3c0.1,0,0.2,0,0.3,0.1c0.1,0.1,0.1,0.1,0.1,0.2c0,0.1,0,0.2-0.1,0.2c-0.1,0.1-0.2,0.1-0.3,0.1H226c-0.1,0-0.2,0-0.3-0.1
		c-0.1-0.1-0.1-0.3,0-0.5c0.1-0.1,0.2-0.1,0.3-0.1h1.5L227.5,202z M232.9,202v18.1h1.3c0.6,0,1.1-0.2,1.5-0.6
		c0.4-0.5,0.6-1.2,0.6-1.8v-13.5c0.1-0.6-0.1-1.1-0.4-1.6c-0.5-0.4-1.1-0.5-1.6-0.4L232.9,202z"/>
	<path class="st1" d="M261.1,216.5v9.6c0,5.6-0.9,9.6-2.6,12.2c-1,1.6-2.7,2.6-4.6,2.7c-1.3,0-2.5-0.5-3.4-1.3
		c-1.2-1.1-2-2.4-2.4-3.9c-1-3-1.5-6.1-1.4-9.2v-11.3c0-5.2,0.9-9.1,2.6-11.7c0.9-1.6,2.6-2.6,4.5-2.6c0.8,0,1.7,0.2,2.4,0.6
		c0.8,0.4,1.5,1,2,1.7c0.7,0.9,1.2,1.9,1.5,3c0.5,1.3,0.8,2.6,1,3.9C261,212.2,261.1,214.4,261.1,216.5z M252.1,236.7
		c-0.1,1,0.1,2,0.6,2.9c0.2,0.4,0.7,0.7,1.1,0.7c0.5,0,0.9-0.2,1.1-0.6c0.4-0.5,0.5-1.1,0.5-1.7v-33.5c0-0.8-0.2-1.6-0.6-2.2
		c-0.2-0.4-0.7-0.6-1.1-0.6c-0.4,0-0.8,0.2-1,0.6c-0.4,0.7-0.7,1.5-0.6,2.3L252.1,236.7z"/>
	<path class="st1" d="M267.9,221.1l-4.3-19.1h-1c-0.1,0-0.2,0-0.2-0.1c-0.1-0.1-0.1-0.2-0.1-0.2c0-0.1,0-0.2,0.1-0.2
		c0.1-0.1,0.1-0.1,0.2-0.1h8.4c0.2,0.1,0.3,0.2,0.3,0.3s-0.1,0.2-0.3,0.4h-2.1l4.1,17.8l3-13.8c0.1-0.5,0.2-1,0.2-1.4
		c0-0.5-0.1-1.1-0.3-1.6c-0.2-0.4-0.5-0.7-0.9-0.8l-0.9-0.1c-0.1-0.1-0.2-0.2-0.2-0.3c0-0.1,0.1-0.2,0.3-0.4h4.2
		c0.1,0,0.3,0,0.4,0.1l0.1,0.1c0,0.1-0.1,0.3-0.3,0.4c-1,0.7-1.7,1.8-1.8,3l-3.6,16.2V240h2.1c0.1,0,0.2,0,0.2,0.1
		c0.1,0.1,0.1,0.3,0,0.5c-0.1,0.1-0.1,0.1-0.2,0.1h-9.6c-0.1,0-0.2,0-0.2-0.1c-0.1-0.1-0.1-0.3,0-0.5c0.1-0.1,0.1-0.1,0.2-0.1h2.2
		L267.9,221.1z"/>
	<path class="st1" d="M285.7,201.9h2.9l4.6,38h1.2c0.2,0.1,0.3,0.2,0.3,0.3s-0.1,0.2-0.3,0.3h-7.9c-0.1,0-0.2,0-0.2-0.1
		c-0.1-0.1-0.1-0.3,0-0.5c0.1-0.1,0.1-0.1,0.2-0.1h1.2l-0.7-7.4h-4.8l-0.5,4.2c0,0.2,0,0.5,0,0.7c0,0.6,0.1,1.2,0.4,1.7
		c0.3,0.4,0.7,0.7,1.2,0.7l0.4,0.1c0.1,0.1,0.1,0.2,0.1,0.3c0,0.1,0,0.2-0.1,0.2c-0.1,0.1-0.1,0.1-0.2,0.1h-4.5
		c-0.1,0-0.2,0-0.2-0.1c-0.1-0.1-0.1-0.2-0.1-0.2c0-0.1,0-0.2,0.1-0.3l0.3-0.1c0.5-0.1,0.9-0.3,1.2-0.7c0.5-0.9,0.8-1.9,0.9-3
		L285.7,201.9z M285,211.6l-2.6,20.2h4.6L285,211.6z"/>
	<path class="st1" d="M297.2,202h-1.6c-0.2-0.1-0.3-0.2-0.3-0.3s0.1-0.2,0.3-0.3h8.7c0.1,0,0.2,0,0.2,0.1c0.1,0.1,0.1,0.1,0.1,0.2
		c0,0.1,0,0.2-0.1,0.2c-0.1,0.1-0.1,0.1-0.2,0.1h-1.7v37.9h1.1c0.7,0,1.5-0.2,2.1-0.7c0.8-0.8,1.4-1.7,1.7-2.8
		c0.8-2.2,1.5-4.4,1.8-6.7c0.4-2.4,0.6-4,0.6-4.7c0-0.2,0-0.3,0.1-0.5l0.2-0.1l0.2,0.1c0.1,0.1,0.1,0.2,0.1,0.2l-0.2,15.7h-14.7
		c-0.1,0-0.2,0-0.2-0.1c-0.1-0.1-0.1-0.3,0-0.5c0.1-0.1,0.1-0.1,0.2-0.1h1.6L297.2,202z"/>
	<path class="st1" d="M315.9,202h-0.5c-0.4,0-0.7,0.1-1,0.4c-0.6,0.7-1,1.5-1.2,2.4c-0.7,2.3-1.3,4.7-1.6,7.2
		c-0.3,1.8-0.6,3.5-0.7,5.3v0.6c0,0.1,0,0.2-0.1,0.3c-0.1,0.1-0.1,0.1-0.2,0.1c-0.1,0-0.2,0-0.2-0.1c-0.1-0.1-0.1-0.2-0.1-0.3v-16.5
		H327v16.5c0,0.1,0,0.2-0.1,0.3c-0.1,0.1-0.2,0.1-0.3,0.1c-0.1,0-0.2,0-0.2-0.1c-0.1-0.1-0.1-0.2-0.1-0.3v-1
		c-0.1-1.9-0.4-3.7-0.7-5.5c-0.4-2.3-1-4.6-1.7-6.8c-0.2-0.8-0.5-1.5-1-2.1c-0.2-0.2-0.5-0.3-0.8-0.4h-0.8V240h2
		c0.2,0.1,0.3,0.2,0.3,0.3s-0.1,0.2-0.3,0.3h-9.6c-0.1,0-0.2,0-0.2-0.1c-0.1-0.1-0.1-0.2-0.1-0.2c0-0.1,0-0.2,0.1-0.2
		c0.1-0.1,0.1-0.1,0.2-0.1h2.3V202z"/>
	<path class="st1" d="M333.5,221.1l-4.3-19.1h-1c-0.1,0-0.2,0-0.2-0.1c-0.1-0.1-0.1-0.2-0.1-0.2c0-0.1,0-0.2,0.1-0.2
		c0.1-0.1,0.1-0.1,0.2-0.1h8.5c0.2,0.1,0.3,0.2,0.3,0.3s-0.1,0.2-0.3,0.4h-2.1l4,17.8l3-13.8c0.1-0.5,0.2-1,0.2-1.4
		c0-0.5-0.1-1.1-0.3-1.6c-0.2-0.4-0.5-0.7-0.9-0.8l-0.9-0.1c-0.1-0.1-0.2-0.2-0.2-0.3c0-0.1,0.1-0.2,0.3-0.4h4.2
		c0.1,0,0.3,0,0.4,0.1l0.1,0.1c0,0.1-0.1,0.3-0.3,0.4c-1,0.7-1.7,1.8-1.8,3l-3.6,16.2V240h2.1c0.1,0,0.2,0,0.2,0.1
		c0.1,0.1,0.1,0.3,0,0.5c-0.1,0.1-0.1,0.1-0.2,0.1h-9.6c-0.1,0-0.2,0-0.2-0.1c-0.1-0.1-0.1-0.3,0-0.5c0.1-0.1,0.1-0.1,0.2-0.1h2.2
		L333.5,221.1z"/>
	<path class="st1" d="M354.9,202h-1.6c-0.2-0.1-0.3-0.2-0.3-0.3s0.1-0.2,0.3-0.3h14.4v14.5c0,0.1,0,0.2-0.1,0.2
		c-0.1,0.1-0.1,0.1-0.2,0.1c-0.1,0-0.2,0-0.2-0.1c-0.1-0.3-0.1-0.5-0.1-0.8c-0.1-2.3-0.5-4.7-1.1-6.9c-0.4-1.7-1-3.4-1.8-5
		c-0.3-0.4-0.6-0.8-1.1-1c-0.6-0.2-1.3-0.3-1.9-0.3h-0.9v18.3c0.9-0.1,1.7-0.7,2.1-1.5c0.9-1.4,1.3-3.6,1.3-6.6v-1.4
		c0-0.1,0-0.2,0.1-0.2c0.1-0.1,0.1-0.1,0.2-0.1c0.1,0,0.2,0,0.2,0.1c0.1,0.1,0.1,0.1,0.1,0.2v19.6c0,0.1,0,0.2-0.1,0.2
		c-0.1,0.1-0.1,0.1-0.2,0.1l-0.2-0.1c-0.1-0.1-0.1-0.1-0.1-0.2v-2.3c0.1-2-0.3-4-1.3-5.8c-0.4-0.8-1.2-1.3-2.1-1.3v18.9h1.7
		c0.1,0,0.2,0,0.2,0.1c0.1,0.1,0.1,0.3,0,0.5c-0.1,0.1-0.1,0.1-0.2,0.1h-8.6c-0.1,0-0.2,0-0.3-0.1c-0.1-0.1-0.1-0.1-0.1-0.2
		c0-0.1,0-0.2,0.1-0.3c0.1-0.1,0.2-0.1,0.3-0.1h1.6L354.9,202z"/>
	<path class="st1" d="M370.9,202h-1.5c-0.2-0.1-0.3-0.2-0.3-0.3s0.1-0.2,0.3-0.3h8.2c2.1,0,4,1,5.3,2.6c1.6,2,2.4,4.5,2.2,7.1
		c0,1.6-0.3,3.1-0.9,4.6c-0.5,1.3-1.4,2.5-2.5,3.3c-1,0.7-2,1.2-3.1,1.5c1.2,0.3,2.3,0.7,3.3,1.4c1,0.7,1.8,1.6,2.4,2.6
		c0.6,1.3,0.8,2.6,0.8,4v9.6c0,0.3,0,0.6,0.2,0.9c0.1,0.2,0.3,0.3,0.5,0.3c0.4,0,0.8-0.3,0.9-0.6c0.6-1.2,0.9-2.5,0.9-3.8
		c0-0.2,0-0.4,0.1-0.6c0.1-0.1,0.1-0.1,0.2-0.1c0.1,0,0.2,0.1,0.3,0.2c0.1,0.2,0.2,0.5,0.1,0.8c0.1,1.6-0.4,3.2-1.4,4.5
		c-0.9,1-2.2,1.6-3.5,1.6c-1,0.1-2.1-0.3-2.8-1c-0.7-0.7-1.1-1.7-1-2.7v-13.8c0.1-0.9-0.2-1.8-0.9-2.4c-0.8-0.3-1.6-0.4-2.4-0.3
		v19.2h1.3c0.1,0,0.2,0,0.3,0.1c0.1,0.1,0.1,0.1,0.1,0.2c0,0.1,0,0.2-0.1,0.2c-0.1,0.1-0.2,0.1-0.3,0.1h-8.2c-0.1,0-0.2,0-0.3-0.1
		c-0.1-0.1-0.1-0.3,0-0.5c0,0,0,0,0,0c0.1-0.1,0.2-0.1,0.3-0.1h1.5L370.9,202z M376.3,202v18.1h1.3c0.6,0,1.1-0.2,1.5-0.6
		c0.4-0.5,0.6-1.2,0.6-1.8v-13.5c0.1-0.6-0.1-1.1-0.4-1.6c-0.5-0.4-1.1-0.5-1.6-0.4L376.3,202z"/>
	<path class="st1" d="M391.1,202h-1.7c-0.2-0.1-0.3-0.2-0.3-0.3s0.1-0.2,0.3-0.3h14.8v14.5c-0.1,0.2-0.2,0.3-0.3,0.3
		c-0.1,0-0.2,0-0.2-0.1c-0.1-0.2-0.1-0.5-0.1-0.7c-0.1-2.7-0.6-5.4-1.4-8.1c-0.8-2.5-1.5-4-2.3-4.7c-0.6-0.4-1.2-0.6-1.9-0.5h-1.6
		v18.3c1-0.1,1.9-0.7,2.4-1.6c1-1.8,1.4-3.8,1.2-5.9v-2c0-0.1,0-0.2,0.1-0.2c0.1-0.1,0.1-0.1,0.2-0.1c0.1,0,0.2,0,0.2,0.1
		c0.1,0.1,0.1,0.1,0.1,0.2v19.4c0,0.1,0,0.2-0.1,0.2c0,0.1-0.1,0.1-0.2,0.1c-0.1,0-0.2,0-0.2-0.1c-0.1-0.1-0.1-0.1-0.1-0.2v-1.9
		c0.1-2.1-0.4-4.3-1.4-6.1c-0.5-0.9-1.1-1.3-1.8-1.3c-0.1,0-0.3,0-0.4,0.1c-0.1,0.2-0.2,0.4-0.2,0.6v18.2h0.8c0.8,0,1.5-0.3,2.1-0.8
		c0.9-0.8,1.6-1.7,2-2.8c0.6-1.4,1.1-2.8,1.4-4.3c0.5-1.9,0.7-3.9,0.8-5.9v-1.7c0.1-0.2,0.2-0.3,0.3-0.3c0.1,0,0.2,0,0.2,0.1
		c0.1,0.1,0.1,0.1,0.1,0.2v16.1h-14.9c-0.1,0-0.2,0-0.3-0.1c-0.1-0.1-0.1-0.1-0.1-0.2c0-0.1,0-0.2,0.1-0.2c0.1-0.1,0.2-0.1,0.3-0.1
		h1.7L391.1,202z"/>
	<path class="st1" d="M407.4,202h-1.7c-0.2-0.1-0.3-0.2-0.3-0.3s0.1-0.2,0.3-0.3h14.9v14.5c-0.1,0.2-0.2,0.3-0.3,0.3
		c-0.1,0-0.2,0-0.2-0.1c-0.1-0.2-0.1-0.5-0.1-0.7c-0.1-2.7-0.6-5.4-1.4-8.1c-0.8-2.5-1.6-4-2.3-4.7c-0.6-0.4-1.3-0.6-1.9-0.5h-1.6
		v18.3c1-0.1,1.9-0.7,2.4-1.6c0.8-1.3,1.3-3.2,1.3-5.9v-2c0-0.1,0-0.2,0.1-0.2c0.1-0.1,0.1-0.1,0.2-0.1c0.1,0,0.2,0,0.2,0.1
		c0.1,0.1,0.1,0.1,0.1,0.2v19.4c0,0.1,0,0.2-0.1,0.2c-0.1,0.1-0.1,0.1-0.2,0.1c-0.1,0-0.2,0-0.2-0.1c-0.1-0.1-0.1-0.1-0.1-0.2v-1.9
		c0.1-2.1-0.4-4.3-1.4-6.2c-0.6-0.9-1.1-1.3-1.8-1.3c-0.1,0-0.3,0-0.4,0.1c-0.1,0.2-0.2,0.4-0.1,0.6v18.2h0.8c0.8,0,1.5-0.3,2.1-0.8
		c0.9-0.8,1.5-1.7,2-2.8c0.6-1.4,1.1-2.8,1.4-4.3c0.5-1.9,0.7-3.9,0.8-5.9v-1.7c0.1-0.2,0.2-0.3,0.3-0.3c0.1,0,0.2,0,0.2,0.1
		c0.1,0.1,0.1,0.1,0.1,0.2v16.1h-14.8c-0.1,0-0.2,0-0.3-0.1c-0.1-0.1-0.1-0.1-0.1-0.2c0-0.1,0-0.2,0.1-0.2c0.1-0.1,0.2-0.1,0.3-0.1
		h1.7L407.4,202z"/>
	<path class="st1" d="M431.2,202h-1.5c-0.1,0-0.2,0-0.2-0.1c-0.1-0.1-0.1-0.1-0.1-0.2c0-0.1,0-0.2,0.1-0.2c0.1-0.1,0.1-0.1,0.2-0.1
		h7.1l2.5,23.9l3.2-23.9h7.1c0.1,0,0.2,0,0.3,0.1c0.1,0.1,0.1,0.1,0.1,0.2c0,0.1,0,0.2-0.1,0.2c-0.1,0.1-0.2,0.1-0.3,0.1h-1.7v37.9
		h1.7c0,0,0.1,0,0.1,0.1c0.1,0.1,0.1,0.2,0.1,0.3c0,0.1,0,0.2,0,0.2c0,0-0.1,0.1-0.1,0.1H441c-0.1,0-0.1,0-0.2-0.1
		c-0.1-0.1-0.1-0.3,0-0.5c0-0.1,0.1-0.1,0.2-0.1h1.8v-36.2l-4.6,36c0,0.3-0.1,0.5-0.2,0.8c-0.1,0.1-0.1,0.1-0.2,0.1h-1.7
		c-0.1,0-0.2,0-0.2-0.1c-0.1-0.3-0.1-0.5-0.1-0.8l-3.8-35.6v33.1c0,0.6,0.1,1.3,0.3,1.9c0.2,0.4,0.5,0.7,1,0.8l1.2,0.1
		c0.1,0.1,0.1,0.2,0.1,0.3c0,0.1,0,0.2-0.1,0.3c-0.1,0.1-0.2,0.1-0.3,0.1h-4.6c-0.1,0-0.1,0-0.2-0.1c0-0.1-0.1-0.1-0.1-0.2
		c0-0.1,0-0.1,0.1-0.2c0.1-0.1,0.3-0.2,0.5-0.2c0.4-0.1,0.8-0.4,1.1-0.8c0.3-0.6,0.4-1.3,0.4-1.9L431.2,202z"/>
	<path class="st1" d="M453.3,202h-1.5c-0.2-0.1-0.3-0.2-0.3-0.3s0.1-0.2,0.3-0.3h8.4c0.1,0,0.2,0,0.2,0.1c0.1,0.1,0.1,0.1,0.1,0.2
		c0,0.1,0,0.2-0.1,0.3c-0.1,0.1-0.1,0.1-0.2,0.1h-1.5v35.9c0,0.6,0.2,1.2,0.6,1.7c0.4,0.4,1,0.6,1.6,0.6c1.2,0,2.4-0.5,3.1-1.5
		c0.9-1.4,1.4-3,1.2-4.6v-28.7c0.1-0.8,0-1.7-0.3-2.5c-0.3-0.4-0.7-0.7-1.2-0.8c-0.2,0-0.4-0.1-0.6-0.2c-0.1-0.1-0.1-0.2-0.1-0.3
		l0.1-0.2l0.2-0.1h4.1c0.1,0,0.2,0.1,0.4,0.3c0,0.1,0,0.2-0.1,0.2c-0.1,0.1-0.3,0.1-0.4,0.1c-0.3,0.1-0.7,0.3-0.8,0.6
		c-0.4,0.9-0.6,1.8-0.5,2.8v29.5c0.1,1.7-0.4,3.3-1.6,4.6c-1.2,1.1-2.8,1.7-4.5,1.6c-2.5,0-4.2-0.6-5.3-1.9c-0.8-0.9-1.1-2.5-1.1-5
		L453.3,202z"/>
	<path class="st1" d="M472.6,238.3c-0.6,0.5-1.3,1-1.8,1.6c-0.6,0.6-1,0.9-1.1,0.9c-0.1,0-0.1,0-0.1-0.1c0-0.1-0.1-0.2,0-0.3V224
		c0-0.1,0-0.1,0.1-0.2c0,0,0.1-0.1,0.1-0.1c0.1,0,0.2,0.1,0.2,0.2c0.1,0.1,0.2,0.3,0.2,0.5v1.1c0,2.5,0.4,5,1,7.4
		c0.4,2.2,1.3,4.2,2.6,5.9c0.5,0.6,1.2,0.9,1.9,0.9c0.9,0,1.6-0.5,2.1-1.2c0.7-1,1-2.3,0.9-3.5c0-1.6-0.3-3.2-0.8-4.8
		c-1.4-3.7-3-7.2-4.9-10.7c-1.2-2.1-2.2-4.4-3-6.6c-0.4-1.3-0.6-2.6-0.6-4c-0.1-2.2,0.5-4.3,1.8-6c1-1.3,2.5-2.1,4.1-2.2
		c1.5,0.1,2.8,0.9,3.6,2.1c0.9-0.5,1.7-1.1,2.5-1.8c0.3-0.2,0.5-0.4,0.5-0.4c0,0,0.1,0,0.1,0.1c0,0.1,0.1,0.2,0.1,0.4v14.2
		c0,0.2,0,0.3-0.1,0.5c-0.1,0.1-0.1,0.1-0.2,0.1c-0.1,0-0.2,0-0.2-0.1c-0.1-0.6-0.2-1.2-0.3-1.9c-0.7-5.4-1.6-9-2.8-10.8
		c-0.5-0.9-1.4-1.4-2.4-1.5c-0.7,0-1.3,0.3-1.7,0.9c-0.5,0.8-0.8,1.7-0.7,2.6c0,2.1,1.2,5.5,3.5,10.2l2.3,4.6c1.3,2.4,2.3,5,3.2,7.6
		c0.5,1.6,0.7,3.3,0.8,5c0.1,2.2-0.6,4.3-1.9,6c-1.1,1.4-2.7,2.3-4.5,2.3C475.2,241,473.5,240,472.6,238.3z"/>
	<path class="st1" d="M486.2,202h-1.6c-0.1,0-0.2,0-0.2-0.1c-0.1-0.1-0.1-0.1-0.1-0.2c0-0.1,0-0.2,0.1-0.2c0.1-0.1,0.1-0.1,0.2-0.1
		h8.5c0.1,0,0.2,0,0.2,0.1c0.1,0.1,0.1,0.1,0.1,0.2c0,0.1,0,0.2-0.1,0.2c-0.1,0.1-0.1,0.1-0.2,0.1h-1.6v37.9h1.6
		c0.2,0.1,0.3,0.2,0.3,0.3s-0.1,0.2-0.3,0.3h-8.7c-0.2-0.1-0.3-0.2-0.3-0.3s0.1-0.2,0.3-0.3h1.8V202z"/>
	<path class="st1" d="M508.4,201.1v15.5c0,0.1,0,0.2-0.1,0.3c-0.1,0.1-0.2,0.1-0.3,0.1c-0.1,0-0.2,0-0.3-0.1
		c-0.1-0.1-0.1-0.2-0.1-0.3v-1.4c0-2.2-0.3-4.4-0.8-6.6c-0.6-2.9-1.5-4.9-2.7-6.2c-0.4-0.5-1.1-0.7-1.7-0.7c-0.4,0-0.9,0.2-1.1,0.6
		c-0.4,0.6-0.6,1.3-0.5,2.1v33.5c-0.1,0.6,0.1,1.3,0.5,1.8c0.3,0.4,0.8,0.6,1.3,0.6c0.8,0,1.6-0.4,2.1-0.9c0.8-0.7,1.3-1.5,1.7-2.5
		c0.8-2.3,1.2-4.7,1.2-7.1v-4.3c0-0.1,0-0.3,0.1-0.4c0.1-0.1,0.2-0.1,0.3-0.1c0.1,0,0.2,0,0.2,0.1c0.1,0.1,0.2,0.3,0.1,0.4v4.3
		c0,4.1-0.7,7.1-2.2,9.1c-0.9,1.4-2.4,2.2-4,2.2c-1.1,0-2.3-0.4-3.1-1.1c-1.1-1.1-1.8-2.4-2.2-3.9c-1.1-4-1.6-8.2-1.5-12.4v-4.5
		c0-3.3,0.3-6.6,0.9-9.9c0.6-3.1,1.6-5.4,2.9-6.8c0.8-0.9,1.9-1.4,3.1-1.4c1.4,0,2.6,1,3.8,2.9l2.1-2.7H508.4z"/>
</g>
</svg>
