<svg xmlns="http://www.w3.org/2000/svg" viewBox="0 0 1000 1000"><defs><style>.cls-1{stroke:#000;}.cls-1,.cls-2{stroke-miterlimit:10;stroke-width:3px;}.cls-2{stroke:#fff;}</style></defs><title>Savfk - Music (Preto)</title><g id="SAVFK_music" data-name="SAVFK music"><path id="m" d="M404.37,623.6V631a12.18,12.18,0,0,1,1.55-3.94,10.65,10.65,0,0,1,2.38-2.7,9.45,9.45,0,0,1,2.81-1.56,8.83,8.83,0,0,1,2.84-.5q5.9,0,7.92,7Q426,622,432.81,622a8.9,8.9,0,0,1,4.61,1.19,10.56,10.56,0,0,1,3.42,3.3,16.53,16.53,0,0,1,2.16,4.95,23.78,23.78,0,0,1,.76,6.13v47.62H435.9V639.08a33.09,33.09,0,0,0-.36-4.94,20.52,20.52,0,0,0-1.08-4.26,10.46,10.46,0,0,0-1.69-3,2.9,2.9,0,0,0-2.27-1.14q-3,0-4.64,3.2a18.76,18.76,0,0,0-1.69,8.7v47.62h-7.92V639.08q0-1.92-.18-4.21a21.92,21.92,0,0,0-.76-4.3,9.29,9.29,0,0,0-1.66-3.34,3.53,3.53,0,0,0-2.88-1.33,3.46,3.46,0,0,0-2.52,1.19,10.65,10.65,0,0,0-2,3.16,21.92,21.92,0,0,0-1.37,4.44,24.66,24.66,0,0,0-.5,4.94v45.6h-8V626.72Z"/><path id="u" d="M476,623v45.87a22.82,22.82,0,0,0,.57,5.25,14.33,14.33,0,0,0,1.66,4.19,9.06,9.06,0,0,0,2.56,2.81,5.65,5.65,0,0,0,3.28,1,5.55,5.55,0,0,0,3.17-1,8.42,8.42,0,0,0,2.45-2.62,14.06,14.06,0,0,0,1.58-3.82,18,18,0,0,0,.57-4.56V626.19l8.37-3.22v62.35h-6.64l-1.74-8a10.81,10.81,0,0,1-4,6.17,11.29,11.29,0,0,1-7,2.3,12,12,0,0,1-9.32-4.28,15.49,15.49,0,0,1-2.79-4.93,19.1,19.1,0,0,1-1-6.45V626.19Z"/><path id="s" d="M549.87,632.36a18.57,18.57,0,0,0-3.66-4.74,6.64,6.64,0,0,0-4.56-1.8,6.28,6.28,0,0,0-3.13.83,8.88,8.88,0,0,0-2.6,2.26,11.08,11.08,0,0,0-1.77,3.27,11.68,11.68,0,0,0-.64,3.87,17.31,17.31,0,0,0,1.17,6.68,10.12,10.12,0,0,0,3.73,4.56q2.87,2,5.77,3.87a31.61,31.61,0,0,1,5.24,4.15,18.92,18.92,0,0,1,3.81,5.39,17.59,17.59,0,0,1,1.47,7.6,23.54,23.54,0,0,1-1,6.86,18,18,0,0,1-3.09,6,15.08,15.08,0,0,1-5.24,4.19,16.87,16.87,0,0,1-7.54,1.57,11.36,11.36,0,0,1-4.53-.87,12.08,12.08,0,0,1-3.62-2.39,18.81,18.81,0,0,1-2.87-3.55,33.41,33.41,0,0,1-2.34-4.42l2.94-2.3a19.65,19.65,0,0,0,1.62,3.5,17.47,17.47,0,0,0,2.3,3.13,12.4,12.4,0,0,0,2.75,2.26,5.88,5.88,0,0,0,3.05.88,8.56,8.56,0,0,0,4.07-.92,8.25,8.25,0,0,0,2.87-2.49,10.78,10.78,0,0,0,1.66-3.5,15.34,15.34,0,0,0,.53-4.05,12.11,12.11,0,0,0-1.55-6.4,18.63,18.63,0,0,0-3.88-4.51,46.22,46.22,0,0,0-5.09-3.73,29.45,29.45,0,0,1-5.09-4.1,20,20,0,0,1-3.88-5.62,19.27,19.27,0,0,1-1.55-8.24A20.09,20.09,0,0,1,526.3,633a19.45,19.45,0,0,1,3-5.62,14.7,14.7,0,0,1,4.41-3.87,10.8,10.8,0,0,1,5.39-1.43,15.54,15.54,0,0,1,8,1.8,14.41,14.41,0,0,1,5.2,6.13Z"/><polygon id="i" points="587.07 623.33 587.07 685.23 578.69 685.23 578.69 626.47 587.07 623.33"/><path id="c" d="M640,632.18a12.47,12.47,0,0,0-3-5.11,6.57,6.57,0,0,0-4.79-1.89,9.11,9.11,0,0,0-5.85,1.89,13.16,13.16,0,0,0-3.85,5.57,36.23,36.23,0,0,0-2.11,9.07,105.92,105.92,0,0,0-.64,12.39,74.59,74.59,0,0,0,.87,11.84,39,39,0,0,0,2.56,9.3,17.42,17.42,0,0,0,4.15,6.12,8.23,8.23,0,0,0,5.69,2.21q2.19,0,4.3-2.53a48.06,48.06,0,0,0,4.3-6.22l1.89,1.11q-1.21,2.4-2.41,4.42a15.74,15.74,0,0,1-2.79,3.5,10.89,10.89,0,0,1-3.73,2.26,15.7,15.7,0,0,1-5.32.78,12.91,12.91,0,0,1-7.62-2.39,19.27,19.27,0,0,1-5.73-6.68,37.19,37.19,0,0,1-3.58-10.22,64.11,64.11,0,0,1-1.25-13.12q0-16.12,5.36-24.08a17.15,17.15,0,0,1,15.09-8,11.86,11.86,0,0,1,7,1.89q2.68,1.89,4,6.68Z"/><path id="A" class="cls-1" d="M416.44,328.49,458.6,599H429.79l-10.48-62.36L392.94,346.49l-26,190.19L356.45,599H345.72l41.65-270.55Z"/><g id="Atmosfera"><path d="M179.06,472.6h0c4.89-4.32,10.07-8.34,15.36-12.29,2.65-2,5.36-3.87,8.05-5.81l8.25-5.63c11.13-7.39,22.76-14.29,34.69-20.9a588.5,588.5,0,0,1,75.7-34.53,633.62,633.62,0,0,1,81.8-24.35,740.75,740.75,0,0,1,85.31-14l21.59-2c1.8-.2,3.6-.25,5.41-.35l5.41-.28,10.81-.58c3.6-.17,7.2-.44,10.81-.53l10.81-.16,10.8-.17c3.6,0,7.19-.2,10.79-.05,14.37.38,28.71.37,42.94,1.46l10.67.62,5.33.31,2.66.15,2.65.26,21.14,2,10.52,1L681,358.2l20.78,2.74c1.72.24,3.45.42,5.17.71l5.13.87,10.23,1.73,20.32,3.4,39.76,8.14L820.94,385h0l-38-11.33c-13-3.39-26.14-6.68-39.46-10l-20.26-4.24L713,357.3l-5.12-1.06c-1.71-.35-3.44-.59-5.17-.89l-20.81-3.44-10.47-1.72-10.57-1.3-21.26-2.59-2.67-.32-2.68-.22-5.36-.43-10.75-.86c-14.35-1.39-28.83-1.63-43.35-2.21-3.63-.2-7.27-.07-10.91-.08l-10.93.06L542,342.3c-3.65.06-7.29.31-10.94.45l-11,.52-5.48.26c-1.83.1-3.66.15-5.48.34l-21.87,2a673.17,673.17,0,0,0-86.35,14.77,581.87,581.87,0,0,0-82.33,26.33,537.24,537.24,0,0,0-75.21,37.51c-11.74,7.17-23.11,14.65-33.91,22.64l-8,6.08c-2.6,2.09-5.21,4.15-7.76,6.26C188.64,463.67,183.68,468,179.06,472.6Z"/></g><path id="K" class="cls-2" d="M718.17,328.49V447.14L802,328.49h11.79l-67.05,94.66L813.77,599H784.43L724.19,455.13l-6,8.31V599H689.09V328.49Z"/><path id="F" class="cls-2" d="M675.74,328.49v7.68h-82v127h57.89v7.68H593.76V599H564.94V328.49Z"/><path id="V" class="cls-2" d="M471.44,328.49l36.15,237.62,37.19-237.62h11L513.87,599H484.8L442.63,328.49Z"/><path id="S-2" data-name="S" class="cls-2" d="M322.67,363.35a74.23,74.23,0,0,0-13-18.39q-6.94-6.87-14.8-6.88a28.73,28.73,0,0,0-14.54,3.68,32.75,32.75,0,0,0-10.74,9.91,48.38,48.38,0,0,0-6.68,14.71,65.94,65.94,0,0,0-2.36,17.75,67.81,67.81,0,0,0,5,26.54,114.19,114.19,0,0,0,12.83,22.71,200.3,200.3,0,0,0,17.81,21.27q10,10.4,19.91,21.91a71.53,71.53,0,0,1,14.27,28.14,124.58,124.58,0,0,1,4.32,32q0,31.35-15.58,49.57t-43.35,18.23a43.68,43.68,0,0,1-28.42-9.91q-12.18-9.91-18.2-29.1l10.48-8a54.37,54.37,0,0,0,4.85,13,46.36,46.36,0,0,0,8,11,39.18,39.18,0,0,0,10.48,7.67A26.62,26.62,0,0,0,275,592a21,21,0,0,0,11.66-3.68,31.65,31.65,0,0,0,9.82-10.87,65,65,0,0,0,6.68-17.75,105,105,0,0,0,2.49-24,85.79,85.79,0,0,0-4.32-26.7,69.83,69.83,0,0,0-14.54-24.78q-10-10.87-19.12-21.11a203.59,203.59,0,0,1-16.5-20.95A97.08,97.08,0,0,1,239.51,419a84.59,84.59,0,0,1-4.32-27.82,93.85,93.85,0,0,1,3.4-25.74,59.21,59.21,0,0,1,10.35-20.79,49.54,49.54,0,0,1,17.42-13.91q10.47-5.11,24.62-5.12,14.4,0,23.57,8T331.31,355Z"/></g><g id="S_90_Graus" data-name="S 90° Graus"><polygon points="507.37 191.21 503.28 191.21 503.28 261.41 507.37 261.41 511.46 261.41 511.46 191.21 507.37 191.21"/><polygon points="521.81 184.22 517.72 184.22 517.72 235.9 521.81 235.9 525.9 235.9 525.9 184.22 521.81 184.22"/><polygon points="536.84 179.15 532.75 179.15 532.75 214.16 536.84 214.16 540.93 214.16 540.93 179.15 536.84 179.15"/><polygon points="551.28 181 547.19 181 547.19 214.16 551.28 214.16 555.37 214.16 555.37 181 551.28 181"/><polygon points="566.3 190.26 562.21 190.26 562.21 294.81 566.3 294.81 570.4 294.81 570.4 190.26 566.3 190.26"/><polygon points="580.75 201.49 576.66 201.49 576.66 282.98 580.75 282.98 584.84 282.98 584.84 201.49 580.75 201.49"/><polygon points="595.2 230.47 591.11 230.47 591.11 252.03 595.2 252.03 599.29 252.03 599.29 230.47 595.2 230.47"/><polygon points="536.84 282.38 532.75 282.38 532.75 292.96 536.84 292.96 540.93 292.96 540.93 282.38 536.84 282.38"/><polygon points="551.28 268.64 547.19 268.64 547.19 305.56 551.28 305.56 555.37 305.56 555.37 268.64 551.28 268.64"/><polygon points="492.63 293.28 496.72 293.28 496.72 223.21 492.63 223.21 488.54 223.21 488.54 293.28 492.63 293.28"/><polygon points="478.19 300.26 482.28 300.26 482.28 248.68 478.19 248.68 474.1 248.68 474.1 300.26 478.19 300.26"/><polygon points="463.16 305.33 467.25 305.33 467.25 270.38 463.16 270.38 459.07 270.38 459.07 305.33 463.16 305.33"/><polygon points="448.72 303.48 452.81 303.48 452.81 270.38 448.72 270.38 444.63 270.38 444.63 303.48 448.72 303.48"/><polygon points="433.69 294.23 437.79 294.23 437.79 189.88 433.69 189.88 429.6 189.88 429.6 294.23 433.69 294.23"/><polygon points="419.25 283.02 423.34 283.02 423.34 201.69 419.25 201.69 415.16 201.69 415.16 283.02 419.25 283.02"/><polygon points="404.8 254.1 408.89 254.1 408.89 232.58 404.8 232.58 400.71 232.58 400.71 254.1 404.8 254.1"/><polygon points="463.16 202.28 467.25 202.28 467.25 191.73 463.16 191.73 459.07 191.73 459.07 202.28 463.16 202.28"/><polygon points="448.72 216 452.81 216 452.81 179.15 448.72 179.15 444.63 179.15 444.63 216 448.72 216"/></g></svg>