<svg id="Layer_1" data-name="Layer 1" xmlns="http://www.w3.org/2000/svg" viewBox="0 0 641.88 507.78"><title>savfk-logo-no-artboard</title><g id="SAVFK_music" data-name="SAVFK music"><path id="m" d="M404.37,623.6V631a12.19,12.19,0,0,1,1.55-3.94,10.58,10.58,0,0,1,2.38-2.7,9.45,9.45,0,0,1,2.81-1.56,8.84,8.84,0,0,1,2.84-.5q5.9,0,7.92,7Q426,622,432.81,622a8.86,8.86,0,0,1,4.61,1.19,10.47,10.47,0,0,1,3.42,3.3,16.31,16.31,0,0,1,2.16,5,23.89,23.89,0,0,1,.76,6.13v47.62H435.9V639.08a34.11,34.11,0,0,0-.36-4.94,21,21,0,0,0-1.08-4.26,10.22,10.22,0,0,0-1.69-3,2.89,2.89,0,0,0-2.27-1.14q-3,0-4.64,3.2a18.76,18.76,0,0,0-1.69,8.7v47.62h-7.92V639.08c0-1.28-.06-2.68-.18-4.21a21.53,21.53,0,0,0-.76-4.3,9.35,9.35,0,0,0-1.66-3.34,3.53,3.53,0,0,0-2.88-1.33,3.49,3.49,0,0,0-2.52,1.19,10.78,10.78,0,0,0-2,3.16,22.36,22.36,0,0,0-1.37,4.44,24.86,24.86,0,0,0-.5,4.94v45.6h-8V626.72Z" transform="translate(-179.06 -179.15)"/><path id="u" d="M476,623v45.87a23.14,23.14,0,0,0,.57,5.25,14.33,14.33,0,0,0,1.66,4.19,9.17,9.17,0,0,0,2.56,2.81,5.64,5.64,0,0,0,3.28,1,5.54,5.54,0,0,0,3.17-1,8.4,8.4,0,0,0,2.45-2.62,14.34,14.34,0,0,0,1.58-3.82,18,18,0,0,0,.57-4.56V626.19l8.37-3.22v62.35h-6.64l-1.74-8a10.84,10.84,0,0,1-4,6.17,11.27,11.27,0,0,1-7,2.3,12,12,0,0,1-9.32-4.28,15.45,15.45,0,0,1-2.79-4.93,19.12,19.12,0,0,1-1-6.45V626.19Z" transform="translate(-179.06 -179.15)"/><path id="s" d="M549.87,632.36a18.57,18.57,0,0,0-3.66-4.74,6.65,6.65,0,0,0-4.56-1.8,6.24,6.24,0,0,0-3.13.83,8.81,8.81,0,0,0-2.6,2.26,11,11,0,0,0-1.77,3.27,11.55,11.55,0,0,0-.64,3.87,17.34,17.34,0,0,0,1.17,6.68,10.08,10.08,0,0,0,3.73,4.56c1.91,1.33,3.84,2.62,5.77,3.87a31.77,31.77,0,0,1,5.24,4.15,18.71,18.71,0,0,1,3.81,5.39,17.57,17.57,0,0,1,1.47,7.6,23.44,23.44,0,0,1-1,6.86,17.93,17.93,0,0,1-3.09,6,15.15,15.15,0,0,1-5.24,4.19,16.78,16.78,0,0,1-7.54,1.57,11.35,11.35,0,0,1-4.53-.87,12,12,0,0,1-3.62-2.39,18.53,18.53,0,0,1-2.87-3.55,33.32,33.32,0,0,1-2.34-4.42l2.94-2.3a19.5,19.5,0,0,0,1.62,3.5,17.28,17.28,0,0,0,2.3,3.13,12.47,12.47,0,0,0,2.75,2.26,5.88,5.88,0,0,0,3,.88,8.58,8.58,0,0,0,4.07-.92,8.3,8.3,0,0,0,2.87-2.49,10.84,10.84,0,0,0,1.66-3.5,15.37,15.37,0,0,0,.53-4,12.12,12.12,0,0,0-1.55-6.4,18.59,18.59,0,0,0-3.88-4.51,46.46,46.46,0,0,0-5.09-3.73,29.5,29.5,0,0,1-5.09-4.1,20,20,0,0,1-3.88-5.62,19.26,19.26,0,0,1-1.55-8.24,20,20,0,0,1,1.08-6.6,19.39,19.39,0,0,1,3-5.62,14.62,14.62,0,0,1,4.41-3.87,10.84,10.84,0,0,1,5.39-1.43,15.47,15.47,0,0,1,8,1.8,14.41,14.41,0,0,1,5.2,6.13Z" transform="translate(-179.06 -179.15)"/><polygon id="i" points="408.01 444.18 408.01 506.08 399.63 506.08 399.63 447.32 408.01 444.18"/><path id="c" d="M640,632.18a12.39,12.39,0,0,0-3-5.11,6.54,6.54,0,0,0-4.79-1.89,9.08,9.08,0,0,0-5.85,1.89,13.18,13.18,0,0,0-3.85,5.57,36.26,36.26,0,0,0-2.11,9.07,104.61,104.61,0,0,0-.64,12.39,75.74,75.74,0,0,0,.87,11.84,39.48,39.48,0,0,0,2.56,9.3,17.4,17.4,0,0,0,4.15,6.12,8.22,8.22,0,0,0,5.69,2.21q2.19,0,4.3-2.53a49.15,49.15,0,0,0,4.3-6.22l1.89,1.11q-1.21,2.4-2.41,4.42a16,16,0,0,1-2.79,3.5,10.83,10.83,0,0,1-3.73,2.26,15.74,15.74,0,0,1-5.32.78,12.9,12.9,0,0,1-7.62-2.39,19.22,19.22,0,0,1-5.73-6.68,37.09,37.09,0,0,1-3.58-10.22,63.55,63.55,0,0,1-1.25-13.12q0-16.12,5.36-24.08a17.15,17.15,0,0,1,15.09-8,11.81,11.81,0,0,1,7,1.89q2.69,1.89,4,6.68Z" transform="translate(-179.06 -179.15)"/><path id="A" d="M416.44,328.49,458.6,599H429.79l-10.48-62.36L392.94,346.49l-26,190.19L356.45,599H345.72l41.65-270.55Z" transform="translate(-179.06 -179.15)" stroke="#000" stroke-miterlimit="10" stroke-width="3"/><g id="Atmosfera"><path d="M179.06,472.6h0c4.89-4.32,10.07-8.34,15.36-12.29,2.65-2,5.36-3.87,8.05-5.81l8.25-5.63c11.13-7.39,22.76-14.29,34.69-20.9a588.73,588.73,0,0,1,75.7-34.53,633.35,633.35,0,0,1,81.8-24.35,741.28,741.28,0,0,1,85.31-14l21.59-2c1.8-.2,3.6-.25,5.41-.35l5.41-.28,10.81-.58c3.6-.17,7.2-.44,10.81-.53l10.81-.16,10.8-.17c3.6,0,7.19-.2,10.79,0,14.37.38,28.71.37,42.94,1.46l10.67.62,5.33.31,2.66.15,2.65.26,21.14,2,10.52,1L681,358.2l20.78,2.74c1.72.24,3.45.42,5.17.71l5.13.87,10.23,1.73,20.32,3.4,39.76,8.14L820.94,385h0l-38-11.33c-13-3.39-26.14-6.68-39.46-10l-20.26-4.24L713,357.3l-5.12-1.06c-1.71-.35-3.44-.59-5.17-.89l-20.81-3.44-10.47-1.72-10.57-1.3L639.6,346.3l-2.67-.32-2.68-.22-5.36-.43-10.75-.86c-14.35-1.39-28.83-1.63-43.35-2.21-3.63-.2-7.27-.07-10.91-.08l-10.93.06-11,.06c-3.65.06-7.29.31-10.94.45l-11,.52-5.48.26c-1.83.1-3.66.15-5.48.34l-21.87,2a673.17,673.17,0,0,0-86.35,14.77A580.71,580.71,0,0,0,318.55,387a537,537,0,0,0-75.21,37.51c-11.74,7.17-23.11,14.65-33.91,22.64l-8,6.08c-2.6,2.09-5.21,4.15-7.76,6.26C188.64,463.67,183.68,468,179.06,472.6Z" transform="translate(-179.06 -179.15)"/></g><path id="K" d="M718.17,328.49V447.14L802,328.49h11.79l-67,94.66,67,175.85H784.43L724.19,455.13l-6,8.31V599h-29.1V328.49Z" transform="translate(-179.06 -179.15)" stroke="#fff" stroke-miterlimit="10" stroke-width="3"/><path id="F" d="M675.74,328.49v7.68h-82v127h57.89v7.68H593.76V599H564.94V328.49Z" transform="translate(-179.06 -179.15)" stroke="#fff" stroke-miterlimit="10" stroke-width="3"/><path id="V" d="M471.44,328.49l36.15,237.62,37.19-237.62h11L513.87,599H484.8L442.63,328.49Z" transform="translate(-179.06 -179.15)" stroke="#fff" stroke-miterlimit="10" stroke-width="3"/><path id="S-2" d="M322.67,363.35a74.11,74.11,0,0,0-13-18.39q-6.94-6.87-14.8-6.88a28.78,28.78,0,0,0-14.54,3.68,32.75,32.75,0,0,0-10.74,9.91,48.34,48.34,0,0,0-6.68,14.71,66.08,66.08,0,0,0-2.36,17.75,67.79,67.79,0,0,0,5,26.54,114.43,114.43,0,0,0,12.83,22.71,201,201,0,0,0,17.81,21.27q10,10.39,19.91,21.91a71.48,71.48,0,0,1,14.27,28.14,124.83,124.83,0,0,1,4.32,32q0,31.35-15.58,49.57T275.76,604.5a43.64,43.64,0,0,1-28.42-9.91q-12.18-9.92-18.2-29.1l10.48-8a54,54,0,0,0,4.85,13,46.34,46.34,0,0,0,8,11A39.2,39.2,0,0,0,263,589.16,26.69,26.69,0,0,0,275,592a21,21,0,0,0,11.66-3.68,31.7,31.7,0,0,0,9.82-10.87,65.22,65.22,0,0,0,6.68-17.75,105.26,105.26,0,0,0,2.49-24,85.93,85.93,0,0,0-4.32-26.7,69.87,69.87,0,0,0-14.54-24.78q-10-10.87-19.12-21.11a204.5,204.5,0,0,1-16.5-20.95A97,97,0,0,1,239.51,419a84.81,84.81,0,0,1-4.32-27.82,94,94,0,0,1,3.4-25.74,59.09,59.09,0,0,1,10.35-20.79,49.45,49.45,0,0,1,17.42-13.91q10.47-5.12,24.62-5.12,14.4,0,23.57,8T331.31,355Z" transform="translate(-179.06 -179.15)" stroke="#fff" stroke-miterlimit="10" stroke-width="3"/></g><g id="S_90_Graus" data-name="S 90 Graus"><polygon points="328.31 12.06 324.22 12.06 324.22 82.26 328.31 82.26 332.4 82.26 332.4 12.06 328.31 12.06"/><polygon points="342.75 5.07 338.66 5.07 338.66 56.75 342.75 56.75 346.84 56.75 346.84 5.07 342.75 5.07"/><polygon points="357.78 0 353.69 0 353.69 35.01 357.78 35.01 361.87 35.01 361.87 0 357.78 0"/><polygon points="372.22 1.85 368.13 1.85 368.13 35.01 372.22 35.01 376.31 35.01 376.31 1.85 372.22 1.85"/><polygon points="387.24 11.11 383.15 11.11 383.15 115.66 387.24 115.66 391.34 115.66 391.34 11.11 387.24 11.11"/><polygon points="401.69 22.34 397.6 22.34 397.6 103.83 401.69 103.83 405.78 103.83 405.78 22.34 401.69 22.34"/><polygon points="416.14 51.32 412.05 51.32 412.05 72.88 416.14 72.88 420.23 72.88 420.23 51.32 416.14 51.32"/><polygon points="357.78 103.23 353.69 103.23 353.69 113.81 357.78 113.81 361.87 113.81 361.87 103.23 357.78 103.23"/><polygon points="372.22 89.49 368.13 89.49 368.13 126.41 372.22 126.41 376.31 126.41 376.31 89.49 372.22 89.49"/><polygon points="313.57 114.13 317.66 114.13 317.66 44.06 313.57 44.06 309.48 44.06 309.48 114.13 313.57 114.13"/><polygon points="299.13 121.11 303.22 121.11 303.22 69.53 299.13 69.53 295.04 69.53 295.04 121.11 299.13 121.11"/><polygon points="284.1 126.18 288.19 126.18 288.19 91.23 284.1 91.23 280.01 91.23 280.01 126.18 284.1 126.18"/><polygon points="269.66 124.33 273.75 124.33 273.75 91.23 269.66 91.23 265.57 91.23 265.57 124.33 269.66 124.33"/><polygon points="254.63 115.08 258.73 115.08 258.73 10.73 254.63 10.73 250.54 10.73 250.54 115.08 254.63 115.08"/><polygon points="240.19 103.87 244.28 103.87 244.28 22.54 240.19 22.54 236.1 22.54 236.1 103.87 240.19 103.87"/><polygon points="225.74 74.95 229.83 74.95 229.83 53.43 225.74 53.43 221.65 53.43 221.65 74.95 225.74 74.95"/><polygon points="284.1 23.13 288.19 23.13 288.19 12.58 284.1 12.58 280.01 12.58 280.01 23.13 284.1 23.13"/><polygon points="269.66 36.85 273.75 36.85 273.75 0 269.66 0 265.57 0 265.57 36.85 269.66 36.85"/></g></svg>